# xmcd
#
# Track frame offsets:
#	183
#	18575
#	64833
#	91133
#	130458
#	148340
#
# Disc length: 2299 seconds
# Revision: 0
# Processed by: cddbd v1.5.2PL0 Copyright (c) Steve Scherf et al.
# Submitted via: dBpowerAMP V12.0
#
DISCID=5608f906
DTITLE=Albert King - Live Wire - Blues Power
DYEAR=1991
DGENRE=Blues
TTITLE0=(01) Watermelon Man
TTITLE1=(02) Blues Power
TTITLE2=(03) Night Stomp
TTITLE3=(04) Blues At Sunrise
TTITLE4=(05) Please Love Me
TTITLE5=(06) Look Out
EXTD=
EXTT0=
EXTT1=
EXTT2=
EXTT3=
EXTT4=
EXTT5=
PLAYORDER=
